HIERARCHY
ROOT Hips
{
	OFFSET -3.958830 18.904000 13.208200
	CHANNELS 6 Xposition Yposition Zposition Zrotation Yrotation Xrotation 
	JOINT LHipJoint
	{
		OFFSET 0.000000 0.000000 0.000000
		CHANNELS 3 Zrotation Yrotation Xrotation
		JOINT LeftUpLeg
		{
			OFFSET 1.800000 -1.400000 0.085000
			CHANNELS 3 Zrotation Yrotation Xrotation
			JOINT LeftLeg
			{
				OFFSET 2.215000 -6.000000 0.000000
				CHANNELS 3 Zrotation Yrotation Xrotation
				JOINT LeftFoot
				{
					OFFSET 2.500000 -6.900000 0.000000
					CHANNELS 3 Zrotation Yrotation Xrotation
					JOINT LeftToeBase
					{
						OFFSET 0.200000 -0.500000 1.950000
						CHANNELS 3 Zrotation Yrotation Xrotation
						End Site
						{
							OFFSET 0.000000 0.000000 0.000000
						}
					}
				}
			}
		}
	}
	JOINT RHipJoint
	{
		OFFSET 0.000000 0.000000 0.000000
		CHANNELS 3 Zrotation Yrotation Xrotation
		JOINT RightUpLeg
		{
			OFFSET -1.800000 -1.400000 0.085000
			CHANNELS 3 Zrotation Yrotation Xrotation
			JOINT RightLeg
			{
				OFFSET -2.215000 -6.000000 0.000000
				CHANNELS 3 Zrotation Yrotation Xrotation
				JOINT RightFoot
				{
					OFFSET -2.500000 -6.900000 0.000000
					CHANNELS 3 Zrotation Yrotation Xrotation
					JOINT RightToeBase
					{
						OFFSET -0.200000 -0.500000 1.950000
						CHANNELS 3 Zrotation Yrotation Xrotation
						End Site
						{
							OFFSET 0.000000 0.000000 0.000000
						}
					}
				}
			}
		}
	}
	JOINT LowerBack
	{
		OFFSET 0.000000 0.000000 0.000000
		CHANNELS 3 Zrotation Yrotation Xrotation
		JOINT Spine
		{
			OFFSET -0.087000 1.940000 -0.288900
			CHANNELS 3 Zrotation Yrotation Xrotation
			JOINT Spine1
			{
				OFFSET 0.000000 1.950000 0.060000
				CHANNELS 3 Zrotation Yrotation Xrotation
				JOINT Neck
				{
					OFFSET 0.000000 0.000000 0.000000
					CHANNELS 3 Zrotation Yrotation Xrotation
					JOINT Neck1
					{
						OFFSET 0.000000 1.600000 0.340000
						CHANNELS 3 Zrotation Yrotation Xrotation
						JOINT Head
						{
							OFFSET 0.000000 1.667000 -0.240000
							CHANNELS 3 Zrotation Yrotation Xrotation
							End Site
							{
								OFFSET 0.000000 0.000000 0.000000
							}
						}
					}
				}
				JOINT LeftShoulder
				{
					OFFSET 0.000000 0.000000 0.000000
					CHANNELS 3 Zrotation Yrotation Xrotation
					JOINT LeftArm
					{
						OFFSET 2.700000 1.550000 -0.730000
						CHANNELS 3 Zrotation Yrotation Xrotation
						JOINT LeftForeArm
						{
							OFFSET 5.450000 0.000000 0.000000
							CHANNELS 3 Zrotation Yrotation Xrotation
							JOINT LeftHand
							{
								OFFSET 3.450000 0.000000 0.000000
								CHANNELS 3 Zrotation Yrotation Xrotation
								JOINT LeftHandIndex1
								{
									OFFSET 0.750000 0.000000 0.000000
									CHANNELS 3 Zrotation Yrotation Xrotation
									End Site
									{
										OFFSET 0.000000 0.000000 0.000000
									}
								}
							}
						}
					}
				}
				JOINT RightShoulder
				{
					OFFSET 0.000000 0.000000 0.000000
					CHANNELS 3 Zrotation Yrotation Xrotation
					JOINT RightArm
					{
						OFFSET -2.700000 1.550000 -0.730000
						CHANNELS 3 Zrotation Yrotation Xrotation
						JOINT RightForeArm
						{
							OFFSET -5.450000 0.000000 0.000000
							CHANNELS 3 Zrotation Yrotation Xrotation
							JOINT RightHand
							{
								OFFSET -3.450000 0.000000 0.000000
								CHANNELS 3 Zrotation Yrotation Xrotation
								JOINT RightHandIndex1
								{
									OFFSET -0.750000 0.000000 0.000000
									CHANNELS 3 Zrotation Yrotation Xrotation
									End Site
									{
										OFFSET 0.000000 0.000000 0.000000
									}
								}
							}
						}
					}
				}
			}
		}
	}
}
MOTION
Frames: 14
Frame Time: 0.016667
9.432030 16.963420 -1.287190 -0.546584 8.821167 -5.062044 -15.341248 14.149664 3.083141 2.017332 -1.628030 -7.337371 -9.069090 8.175578 21.648759 -0.247252 5.592179 2.752147 0.041180 -0.246930 -0.114110 18.076409 -9.950114 3.279536 3.978070 3.971465 -33.065821 -4.874287 -2.609548 25.507433 0.074170 -2.517485 3.608946 -0.063890 0.410020 0.027800 -3.195875 -4.388844 -7.876039 5.636599 -5.754724 16.786256 -1.776284 -4.168525 2.208227 -0.125691 -7.117214 -10.666842 -20.909816 4.538384 39.140791 2.908710 -3.352910 -4.066770 -13.807563 -5.837694 1.582391 -48.990037 -15.942147 2.061253 -61.143657 -44.130838 22.496399 -3.749948 3.199312 0.533600 0.120600 -0.201290 0.110080 14.714717 8.591783 8.106093 55.255042 -11.145755 -14.378830 14.598292 22.569439 0.260531 2.045058 -1.041625 -0.352010 0.374490 0.267270 -0.162020 
9.412860 16.966580 -1.280660 -0.913794 7.576612 -4.909394 -15.359718 14.199395 3.058260 2.154664 -1.670806 -7.645892 -8.658422 8.078784 21.940084 -0.246499 5.572653 2.757082 0.048210 -0.235700 -0.113970 18.054182 -9.814477 3.331399 2.648071 3.812842 -33.012259 -0.196574 -2.963842 17.731201 0.195648 -1.723805 3.903691 -0.061960 0.406110 0.023280 -3.114766 -4.595790 -7.885621 5.678113 -5.737152 16.520808 -1.040389 -4.207442 2.014915 -0.172468 -7.498596 -10.766313 -22.140514 5.341356 39.125591 3.116370 -3.259550 -4.275600 -13.471476 -5.740202 1.407229 -51.703446 -16.744858 2.371577 -55.839077 -38.964780 17.303345 -3.733719 3.159669 0.539230 0.108160 -0.191670 0.116620 14.570615 8.758171 8.298653 55.506752 -11.595071 -15.187689 15.786543 24.478228 0.488707 2.029763 -1.057663 -0.348220 0.381490 0.261190 -0.155430 
9.389810 16.971680 -1.275150 -1.244654 6.409218 -4.662999 -15.381833 14.196596 3.007012 2.319883 -1.720181 -7.996433 -8.341699 8.012835 22.197295 -0.238851 5.552244 2.761507 0.054950 -0.228060 -0.103600 18.041476 -9.625994 3.456434 1.406622 3.870180 -33.607569 3.465644 -2.956698 11.835675 0.239614 -1.369168 4.036552 -0.063970 0.395500 0.020240 -3.043266 -4.773931 -7.940791 5.660531 -5.787650 16.259118 -0.511866 -4.325688 1.760480 -0.080927 -7.719633 -10.866800 -22.974923 6.081223 39.290484 3.010980 -2.970880 -4.206740 -13.493028 -5.893090 1.323339 -54.316389 -17.078417 2.454564 -50.159855 -33.565212 12.568281 -3.725437 3.115452 0.540210 0.097990 -0.182070 0.117720 14.509084 9.064933 8.441143 55.949358 -11.650327 -15.870868 16.833785 26.277603 0.726456 2.024977 -1.077099 -0.340810 0.379920 0.251300 -0.153400 
9.362820 16.977820 -1.264870 -1.336950 5.408110 -4.412721 -15.408329 14.186036 2.951143 2.217177 -1.672412 -8.177300 -7.869660 7.873255 22.263115 -0.240736 5.496859 2.781355 0.054110 -0.227290 -0.109770 18.029462 -9.450813 3.591362 0.333010 3.967198 -34.780991 5.507835 -2.767731 8.096705 0.252739 -1.234747 4.086556 -0.066830 0.397910 0.016890 -2.970656 -4.923174 -7.992581 5.294156 -5.864137 15.991638 -0.156774 -4.511084 1.437859 -0.010210 -7.907797 -10.926625 -23.618340 6.919453 39.347619 3.326980 -2.757410 -4.072040 -13.759647 -6.020849 1.301141 -56.863288 -16.847749 2.315449 -44.399944 -28.426101 8.646509 -3.725280 3.069275 0.541690 0.092220 -0.179690 0.122000 14.744277 9.316356 8.473100 56.449020 -11.486095 -16.473889 17.901985 27.972826 0.988191 2.020571 -1.093209 -0.339160 0.383010 0.249990 -0.147430 
9.334290 16.987630 -1.252430 -1.417760 4.701530 -4.302235 -15.432575 14.205232 2.900297 2.021729 -1.536586 -8.123935 -7.112898 7.612291 22.100373 -0.246833 5.384795 2.819675 0.060130 -0.220740 -0.108930 18.013287 -9.321817 3.710378 -0.676078 4.036243 -36.234242 6.540467 -2.649952 6.330023 0.249596 -1.183929 4.100776 -0.071970 0.391370 0.018450 -2.901691 -5.057697 -8.038941 4.874822 -6.029648 15.922093 0.048213 -4.771996 0.948730 0.171692 -8.016087 -10.977412 -24.119841 7.754818 39.656538 3.640760 -2.501680 -4.006450 -14.491321 -6.201761 1.290894 -59.120594 -16.109570 1.947507 -38.345619 -23.612060 5.472357 -3.721817 3.020932 0.547370 0.081740 -0.169620 0.126030 15.236345 9.549594 8.466178 56.916842 -11.332819 -16.974057 18.942118 29.138119 1.211599 2.025126 -1.103562 -0.329710 0.378590 0.244050 -0.142680 
9.305920 17.005640 -1.241690 -1.628271 4.197539 -4.392887 -15.445618 14.256249 2.859556 1.920786 -1.341551 -7.882164 -6.196379 7.283780 21.753815 -0.260492 5.239513 2.864634 0.067480 -0.209780 -0.102750 17.997617 -9.250927 3.800785 -1.628205 4.044650 -37.550882 6.754071 -2.597188 5.753942 0.238825 -1.144820 4.105904 -0.078120 0.371740 0.017930 -2.853142 -5.165999 -8.086917 4.656988 -6.306336 16.140048 0.056666 -5.087200 0.274402 0.510499 -8.056232 -11.096578 -24.644299 8.675768 40.535239 3.796510 -2.133340 -4.100550 -15.988657 -6.685325 1.312432 -60.684334 -14.856617 1.352170 -31.972136 -19.154463 3.004067 -3.711738 2.955969 0.563590 0.062340 -0.148500 0.125200 16.190146 10.001249 8.526460 57.195158 -11.217070 -17.468592 19.771515 30.403090 1.439724 2.031315 -1.104519 -0.318990 0.373210 0.237310 -0.141920 
9.278320 17.025670 -1.231430 -2.003944 3.886080 -4.449311 -15.432730 14.300107 2.811315 1.914452 -1.129691 -7.627940 -5.090611 6.852433 21.134035 -0.282683 5.047725 2.929320 0.081610 -0.197460 -0.084960 18.004357 -9.235218 3.864842 -2.587728 3.977281 -38.667945 6.458904 -2.570885 5.673614 0.226777 -1.112251 4.109655 -0.082170 0.349030 0.017780 -2.877927 -5.184838 -8.109817 4.959290 -6.739160 16.284004 -0.457321 -5.485032 -0.444655 0.921209 -8.037463 -11.127592 -24.895224 9.507424 41.460464 4.010030 -1.759530 -4.170780 -17.720715 -7.061932 1.294816 -61.749017 -13.314153 0.722132 -25.668518 -15.275965 1.290737 -3.702463 2.886721 0.580230 0.042400 -0.126450 0.125850 17.148755 10.238336 8.460617 57.585318 -10.979216 -17.769970 20.512539 30.940088 1.579069 2.047679 -1.099492 -0.308380 0.366760 0.223400 -0.144900 
9.248770 17.035630 -1.217060 -2.398119 3.801409 -4.198054 -15.406144 14.306247 2.753342 1.897830 -0.939085 -7.547325 -4.010649 6.408879 20.352030 -0.305234 4.848541 3.007149 0.072840 -0.204670 -0.091320 18.031387 -9.243789 3.910581 -3.762149 3.848636 -39.772005 6.021483 -2.603142 5.960512 0.227766 -1.125640 4.102026 -0.092640 0.354780 0.018380 -2.955719 -5.113211 -8.092534 5.562944 -7.210415 15.951097 -1.315189 -5.917768 -1.040683 1.264133 -8.023403 -10.840648 -24.532703 9.861139 41.522430 3.952990 -1.447230 -3.793790 -19.202850 -6.795740 1.091890 -62.594011 -11.782294 0.271353 -20.007418 -11.970919 0.248332 -3.725138 2.823650 0.572870 0.046200 -0.127800 0.128040 17.868312 9.824142 8.114951 58.154381 -10.505510 -17.876353 21.512183 31.353693 1.779617 2.066176 -1.102307 -0.304390 0.363800 0.222290 -0.139090 
9.218660 17.036910 -1.199240 -2.763050 3.801544 -3.727426 -15.373196 14.273541 2.699223 1.942647 -0.797736 -7.573005 -3.246850 6.056099 19.456869 -0.329975 4.687594 3.080137 0.041800 -0.237950 -0.118790 18.069462 -9.272910 3.938312 -5.225302 3.654214 -40.802033 5.665303 -2.744887 6.789045 0.239746 -1.208144 4.073642 -0.108170 0.385140 0.020040 -3.059569 -4.960567 -8.052701 6.262359 -7.564922 15.270978 -2.345787 -6.249224 -1.498886 1.548971 -7.932051 -10.311693 -23.453822 9.774946 40.882594 3.664450 -1.129830 -2.926460 -20.678108 -6.178567 0.742560 -62.781562 -10.259187 -0.138957 -15.514149 -9.255065 -0.321722 -3.776779 2.771666 0.550220 0.072650 -0.153190 0.130120 18.605070 9.015145 7.631059 58.701939 -10.042116 -17.869519 22.586035 31.818889 2.028371 2.076284 -1.114619 -0.313620 0.361870 0.235380 -0.132580 
9.185980 17.030340 -1.179640 -3.057260 4.104428 -3.104326 -15.343215 14.214425 2.647236 1.986595 -0.749698 -7.813929 -2.636201 5.768264 18.754363 -0.343825 4.559954 3.145500 0.000560 -0.284650 -0.152290 18.107322 -9.327403 3.941479 -7.104247 3.316281 -41.627989 5.504871 -3.024763 8.168451 0.254364 -1.381390 4.011541 -0.128380 0.427740 0.029250 -3.163751 -4.745630 -7.987525 6.841814 -7.788605 14.291469 -3.389152 -6.503380 -1.782217 1.785726 -7.668698 -9.526762 -21.601474 9.205838 39.693560 3.056790 -0.800300 -1.599260 -21.877740 -5.027437 0.249143 -62.473780 -8.821123 -0.579528 -12.388154 -7.275031 -0.595199 -3.848781 2.742552 0.507170 0.116900 -0.193380 0.132060 19.103663 7.602634 6.950419 59.350243 -9.558563 -17.759018 23.835722 32.487340 2.383302 2.086555 -1.146703 -0.321780 0.348730 0.250470 -0.123460 
9.147830 17.020590 -1.162620 -3.317449 4.414097 -2.480776 -15.322798 14.147416 2.602684 2.257400 -0.799720 -8.225331 -2.381390 5.627270 18.325161 -0.354249 4.492620 3.190292 -0.042830 -0.335180 -0.184160 18.133688 -9.400449 3.928523 -9.079617 2.950567 -42.164442 5.460040 -3.420387 10.057647 0.263144 -1.620093 3.925540 -0.147810 0.474060 0.037250 -3.235729 -4.506347 -7.920928 7.120683 -7.734614 13.329291 -4.086918 -6.519997 -1.956478 1.959024 -7.187829 -8.693426 -19.345369 8.422944 38.492488 2.400270 -0.475280 -0.300220 -22.834978 -3.743016 -0.262053 -61.876936 -7.588581 -1.009865 -10.297958 -5.939177 -0.732301 -3.923696 2.718781 0.464010 0.164800 -0.236670 0.134130 19.516500 5.997886 6.246336 59.971799 -9.173832 -17.634234 24.886791 33.385717 2.775803 2.089166 -1.180087 -0.335180 0.339500 0.266620 -0.117000 
9.104870 17.012460 -1.144820 -3.547023 4.499816 -1.894872 -15.308885 14.066510 2.556240 2.627209 -0.836384 -8.523357 -2.272258 5.529311 17.808875 -0.358793 4.435688 3.230987 -0.079890 -0.377060 -0.214700 18.155055 -9.474194 3.921286 -11.028791 2.644718 -42.418839 5.842814 -3.911565 12.014424 0.263399 -1.917451 3.819171 -0.164690 0.519090 0.048790 -3.286733 -4.239642 -7.856029 7.174097 -7.397910 12.387476 -4.486715 -6.275437 -1.997592 2.054800 -6.613054 -7.936379 -17.122538 7.550628 37.341969 1.823090 -0.301550 0.854570 -23.539423 -2.502533 -0.697159 -61.180240 -6.530815 -1.449773 -8.860992 -5.225727 -0.809290 -3.992766 2.704751 0.420060 0.212280 -0.276850 0.138460 19.876399 4.476964 5.617891 60.506092 -8.897261 -17.524537 25.571476 34.445230 3.144814 2.085375 -1.216098 -0.342890 0.328730 0.279760 -0.107810 
9.061290 17.007970 -1.123440 -3.852019 5.020133 -1.499615 -15.299763 14.010952 2.509870 3.187554 -0.926062 -8.863852 -2.098265 5.444072 17.532755 -0.365267 4.397828 3.256013 -0.109360 -0.410720 -0.237070 18.163936 -9.572828 3.879011 -13.150767 2.181315 -41.953242 6.634047 -4.527181 13.828627 0.251760 -2.277552 3.686183 -0.177990 0.552290 0.060030 -3.320749 -4.004196 -7.785521 7.122849 -7.104755 11.527167 -4.630844 -6.088146 -1.939232 2.109601 -5.937990 -7.313353 -15.060365 6.709567 36.637002 1.416790 -0.266020 1.758430 -23.830675 -1.357120 -1.012322 -60.579334 -5.709836 -1.837003 -7.977854 -5.039443 -0.857021 -4.048524 2.694979 0.384720 0.250710 -0.308110 0.138250 19.966534 2.983778 5.040617 60.915856 -8.628792 -17.297957 26.106087 35.242381 3.479760 2.082172 -1.243568 -0.347370 0.317010 0.291410 -0.101910 
9.017240 17.005720 -1.106360 -4.315710 5.524385 -1.301189 -15.286483 13.976017 2.462517 3.981112 -1.055660 -9.313022 -1.884224 5.392261 17.573480 -0.379642 4.376137 3.264052 -0.121260 -0.421910 -0.245270 18.169909 -9.698000 3.817635 -14.946502 1.794107 -41.143012 7.362680 -5.223968 15.929883 0.225313 -2.662755 3.539344 -0.180110 0.565490 0.066850 -3.356290 -3.778337 -7.716764 7.127599 -6.733872 10.914545 -4.530892 -5.796566 -1.688324 2.100684 -5.238409 -6.877482 -13.260840 5.838291 36.307888 1.048710 -0.344160 2.068000 -23.724255 -0.540571 -1.182973 -60.070582 -5.281472 -2.107364 -7.674474 -5.232330 -0.883685 -4.081627 2.689723 0.364380 0.272800 -0.323980 0.136510 19.820799 1.842572 4.598022 61.327848 -8.271360 -17.123798 26.071423 36.020003 3.674991 2.073389 -1.262811 -0.348540 0.308970 0.296310 -0.101280 
